<svg width="60" height="60" fill="none" xmlns="http://www.w3.org/2000/svg"><g opacity=".7" clip-path="url(#clip0)"><path d="M37.315 42.509C36.36 52.79 27.35 60.424 17.067 59.47 6.785 58.516-.848 49.505.107 39.223 1.06 28.94 10.07 21.307 20.352 22.262c10.283.848 17.81 9.964 16.962 20.247z" fill="#6A3F24"/><path d="M25.442 51.52H22.05l-.849-4.347h-4.876l-.848 4.346H11.98l5.088-21.943h3.18l5.195 21.943zm-4.877-7.421l-1.802-9.223-1.802 9.223h3.605z" fill="#fff"/><path d="M54.064 13.887a12.75 12.75 0 01-13.887 11.555 12.75 12.75 0 01-11.555-13.887C29.152 4.665 35.406-.53 42.402 0 49.506.636 54.7 6.89 54.065 13.887z" fill="#6A3F24"/><path d="M45.583 15.901a9.75 9.75 0 01-.212 2.014c-.106.424-.318.848-.742 1.272-.53.636-1.484.954-2.756.954H38.48V5.512h3.498c1.272 0 2.12.318 2.65.848.318.318.53.742.636 1.167.106.424.212 1.06.212 1.802 0 1.166-.212 1.908-.742 2.544-.212.212-.424.424-.742.53.318.106.53.318.742.53.53.636.848 1.59.848 2.968zm-2.226-6.36c0-.742-.106-1.166-.318-1.484-.212-.318-.636-.424-1.166-.424h-1.06v3.922h1.06c.53 0 .954-.106 1.166-.424.212-.318.318-.848.318-1.59zm0 6.148c0-.848-.106-1.378-.424-1.696-.212-.318-.636-.53-1.272-.53H40.6v4.558h1.06c.636 0 1.06-.212 1.272-.53.318-.318.424-.954.424-1.802z" fill="#fff"/><path d="M22.898 11.767c-.424 4.24-4.135 7.42-8.375 6.996-4.24-.424-7.42-4.134-6.996-8.374.424-4.24 4.134-7.42 8.374-6.997 4.24.424 7.42 4.135 6.997 8.375z" fill="#6A3F24"/><path d="M17.385 13.25c0 .849-.318 1.591-.742 2.015a2.093 2.093 0 01-1.484.636c-.742 0-1.272-.318-1.696-.848-.318-.318-.424-.848-.53-1.378-.106-.53-.106-1.378-.106-2.65s0-2.12.106-2.65c.106-.53.212-.955.53-1.379.424-.424.954-.636 1.696-.636.636 0 1.166.212 1.59.636.424.424.636 1.06.742 2.015h-1.378c0-.424-.106-.742-.212-.954-.106-.212-.318-.318-.636-.318s-.53.106-.636.318c-.106.212-.212.53-.212.954 0 .424-.106 1.166-.106 2.12 0 .954 0 1.59.106 2.12 0 .424.106.742.212.954.106.212.318.318.636.318s.53-.106.636-.318c.106-.212.212-.53.212-.954h1.272z" fill="#fff"/><path d="M60 38.905c-.424 5.3-5.194 9.222-10.495 8.798-5.3-.424-9.222-5.194-8.798-10.495.424-5.3 5.194-9.222 10.495-8.798 5.3.53 9.222 5.194 8.798 10.495z" fill="#6A3F24"/><path d="M52.05 42.403h-3.71v-9.329h3.71v1.272h-2.333v2.757h2.014v1.272h-2.014v2.756h2.333v1.272z" fill="#fff"/></g><defs><clipPath id="clip0"><path fill="#fff" d="M0 0h60v59.47H0z"/></clipPath></defs></svg>