<svg width="120" height="36" fill="none" xmlns="http://www.w3.org/2000/svg"><path d="M.13 1.4h6.24V35H.13V1.4zm30.88 34.08c-3.393 0-6.465-.736-9.217-2.208-2.72-1.504-4.864-3.568-6.432-6.192-1.536-2.624-2.304-5.584-2.304-8.88 0-3.296.784-6.256 2.352-8.88 1.568-2.624 3.712-4.672 6.432-6.144C24.593 1.672 27.665.92 31.057.92c2.752 0 5.264.48 7.536 1.44 2.272.96 4.192 2.352 5.76 4.176l-4.032 3.792c-2.432-2.624-5.424-3.936-8.976-3.936-2.304 0-4.368.512-6.192 1.536a10.728 10.728 0 00-4.272 4.176c-1.024 1.792-1.536 3.824-1.536 6.096 0 2.272.512 4.304 1.536 6.096 1.024 1.792 2.448 3.2 4.272 4.224 1.824.992 3.888 1.488 6.192 1.488 3.552 0 6.544-1.328 8.976-3.984l4.032 3.84c-1.568 1.824-3.504 3.216-5.808 4.176-2.272.96-4.784 1.44-7.536 1.44zm34.315 0c-3.424 0-6.512-.736-9.264-2.208-2.752-1.504-4.912-3.568-6.48-6.192-1.568-2.656-2.352-5.616-2.352-8.88 0-3.264.784-6.208 2.352-8.832 1.568-2.656 3.728-4.72 6.48-6.192C58.813 1.672 61.901.92 65.325.92c3.424 0 6.512.752 9.264 2.256 2.752 1.472 4.912 3.52 6.48 6.144 1.568 2.624 2.352 5.584 2.352 8.88 0 3.296-.784 6.256-2.352 8.88-1.568 2.624-3.728 4.688-6.48 6.192-2.752 1.472-5.84 2.208-9.264 2.208zm0-5.472c2.24 0 4.256-.496 6.048-1.488a11.155 11.155 0 004.224-4.224c1.024-1.824 1.536-3.856 1.536-6.096s-.512-4.256-1.536-6.048c-1.024-1.824-2.432-3.232-4.224-4.224-1.792-1.024-3.808-1.536-6.048-1.536s-4.256.512-6.048 1.536c-1.792.992-3.2 2.4-4.224 4.224-1.024 1.792-1.536 3.808-1.536 6.048s.512 4.272 1.536 6.096a11.155 11.155 0 004.224 4.224c1.792.992 3.808 1.488 6.048 1.488zM119.891 1.4V35h-5.136L96.227 12.248V35h-6.192V1.4h5.136L113.7 24.152V1.4h6.192z" fill="url(#paint0_linear)"/><defs><linearGradient id="paint0_linear" x1="-9.635" y1="48" x2="124.38" y2="48" gradientUnits="userSpaceOnUse"><stop stop-color="#890C58"/><stop offset="1" stop-color="#FC4D8D"/></linearGradient></defs></svg>