<svg width="58" height="60" fill="none" xmlns="http://www.w3.org/2000/svg"><g clip-path="url(#clip0)" fill="#fff"><path d="M45.203 25.805H22.195c-6.045 0-11.007-4.873-11.097-10.918 0-3.699 1.353-6.586 3.88-8.661 2.075-1.625 4.781-2.617 7.669-2.617h5.052c.09 0 .18-.09.18-.27V.18h2.617v3.25c0 1.533-1.263 2.887-2.797 2.887h-5.052c-2.256 0-4.421.722-5.955 1.985-1.985 1.624-2.887 3.699-2.887 6.316.09 4.781 3.88 8.48 8.48 8.48h22.918v2.707z"/><path d="M28.872 15.88h-7.128v-2.617h7.128c4.24 0 7.76-3.519 7.76-7.85V0h2.616v5.414c0 5.774-4.692 10.466-10.376 10.466z"/><path d="M45.474 36H12.36v-2.617h33.113c5.143 0 9.293-4.24 9.293-9.473 0-4.512-3.338-8.12-7.489-8.12l-25.263.09v-2.617l25.263-.09c5.594 0 10.105 4.872 10.105 10.827 0 6.587-5.323 12-11.91 12z"/><path d="M33.744 45.925H10.737C4.782 45.925 0 41.053 0 35.098c0-6.587 5.323-11.91 11.82-11.91h11.548v2.617H11.82c-5.053 0-9.203 4.15-9.203 9.293 0 4.511 3.609 8.21 8.12 8.21h23.007v2.617z"/><path d="M27.248 60h-2.616v-4.872c0-1.534 1.263-2.797 2.706-2.797h5.955c4.782 0 8.662-3.97 8.662-8.752 0-1.985-.812-3.97-2.166-5.323-1.353-1.354-3.248-2.166-5.142-2.166H12.722v-2.616h21.834c2.617 0 5.143 1.082 7.038 2.887a10.246 10.246 0 012.977 7.218c0 6.316-5.052 11.368-11.278 11.368h-5.955L27.248 60z"/><path d="M18.677 59.459H16.06v-5.504c0-5.865 4.692-10.647 10.557-10.647l6.406.09v2.617l-6.406-.09c-4.331 0-7.94 3.609-7.94 8.03v5.504z"/></g><defs><clipPath id="clip0"><path fill="#fff" d="M0 0h57.383v60H0z"/></clipPath></defs></svg>