<svg width="180" height="36" fill="none" xmlns="http://www.w3.org/2000/svg"><g clip-path="url(#clip0)" fill="#6A3F24"><path d="M1.563 2.91c0 1.214.882 1.897 1.865 1.897s1.916-.658 1.916-1.898V.632H.076v1.139h1.487v1.138zm.958-1.14h1.814v1.165c0 .506-.403.81-.907.81s-.932-.33-.932-.81V1.77h.025zm-.529 7.06c.302.606.882.96 1.537.96.933 0 1.815-.657 1.815-1.872V5.642H.076V6.78h1.74v.961L.075 8.83v1.215h.151L1.991 8.83zm.756-2.075H4.36v1.138c0 .48-.353.784-.807.784-.453 0-.832-.303-.832-.784V6.755h.026zm-1.664 5.262h1.21v1.973h.983v-1.973h1.058v2.125h.983v-3.264H.076v3.315h1.008v-2.176zM.076 16.368h2.848L1.261 17.71v.127l1.663 1.34H.076v1.139h5.268v-.405l-2.496-2.125 2.496-2.15v-.405H.076v1.138zm.882 6.806h3.503v.683h.857v-2.505h-.856v.683H.958v-.759H.076v2.657h.882v-.76zm.857 5.894h3.503V27.93H1.84c-.555 0-.857-.456-.857-.987 0-.531.277-.987.857-.987h3.478v-1.138H1.815C.63 24.818 0 25.83 0 26.943c0 1.164.63 2.125 1.815 2.125zM.076 31.396h2.848l-1.663 1.34v.152l1.663 1.341H.076v1.139h5.268v-.405l-2.496-2.15 2.496-2.126v-.43H.076v1.139zM26.337 14.85c-3.554-.405-6.528-1.088-6.528-4.149 0-2.656 2.873-4.25 5.797-4.25 2.924 0 5.797 1.19 6.175 3.997h6.805C38.586 2.707 31.957 0 25.606 0c-6.754 0-12.93 3.213-12.93 10.853 0 7.16 6.226 9.285 12.4 9.816 3.252.253 7.436.582 7.436 4.529 0 3.592-3.503 4.35-6.528 4.35-3.302 0-6.704-1.34-6.855-4.477h-6.956c0 7.539 7.057 10.954 13.862 10.954 6.704-.151 13.66-2.656 13.66-10.802.025-8.096-6.15-9.74-13.358-10.373zm27.396-8.399h4.436V.734H42.014V6.45h4.435v22.946H41.61v5.87h16.937v-5.87h-4.814V6.451zm35.334 6.072c0-6.122-4.234-11.84-12.021-11.84-4.865-.05-9.678 0-14.543 0v34.533h7.31V23.83h6.073l7.007 11.385h7.787v-1.038l-7.687-11.485c3.882-1.923 6.074-5.768 6.074-10.17zM76.995 17.76h-7.309V7.16h7.31c3.124 0 5.015 2.327 5.015 5.236.05 2.935-1.941 5.364-5.016 5.364zm27.194-11.309h4.436V.734H92.47V6.45h4.435v22.946h-4.839v5.87h16.937v-5.87h-4.814V6.451zm28.328 17.178c0 3.694-2.923 5.566-6.275 5.566-3.352 0-6.326-1.872-6.326-5.566V.734h-7.309V23.78c0 7.741 6.427 11.94 13.635 11.94s13.483-4.199 13.483-11.94V.734h-7.208v22.895zm24.8-8.779c-3.553-.405-6.527-1.088-6.527-4.149 0-2.656 2.873-4.25 5.797-4.25 2.923 0 5.796 1.19 6.174 3.997h6.805C169.566 2.707 162.938 0 156.587 0c-6.755 0-12.93 3.213-12.93 10.853 0 7.16 6.226 9.285 12.4 9.816 3.251.253 7.435.582 7.435 4.529 0 3.592-3.503 4.35-6.527 4.35-3.302 0-6.704-1.34-6.856-4.477h-6.956c0 7.539 7.057 10.954 13.862 10.954 6.704-.151 13.66-2.656 13.66-10.802.025-8.096-6.15-9.74-13.358-10.373zm15.172-9.588c0 5.136 7.536 5.11 7.536 0-.025-5.11-7.536-5.11-7.536 0zm1.109 0c0-3.82 5.293-3.82 5.293 0 .025 3.82-5.293 3.82-5.293 0z"/><path d="M177.858 4.705c0-.81-.58-1.264-1.336-1.264h-1.588v3.617h.907V5.87h.454l.706 1.19h.932v-.18l-.756-1.138c.454-.152.681-.582.681-1.038zm-1.437.43h-.58V4.25h.58c.328 0 .504.177.504.455.025.228-.202.43-.504.43z"/></g><defs><clipPath id="clip0"><path fill="#fff" d="M0 0h180v36H0z"/></clipPath></defs></svg>