<svg width="60" height="60" fill="none" xmlns="http://www.w3.org/2000/svg"><path fill="#fff" d="M0 0h60v60H0z"/><g opacity=".7" clip-path="url(#clip0)"><path d="M29.184 60h-.967c-8.405-2.609-15.555-10.725-20.386-23.575C4.256 26.957 3 18.261 3 17.875l1.45-1.836C19.811 14.203 27.154.097 27.25 0h2.899c.096.097 7.44 14.203 22.802 16.039l1.449 1.835c-.097 1.45-4.928 36.039-25.217 42.126zM6.574 19.034c1.16 6.763 6.57 32.464 22.223 37.584 15.556-5.12 21.063-30.82 22.222-37.584-12.174-2.126-19.323-10.821-22.222-15.17-2.995 4.349-10.145 13.044-22.222 15.17z" fill="#6A3F24"/><path d="M56.14 37.971a13.607 13.607 0 01-13.622 13.623c-7.537 0-13.623-6.183-13.623-13.623a13.607 13.607 0 0113.623-13.623A13.607 13.607 0 0156.14 37.97z" fill="#6A3F24"/><path d="M51.502 36.232h-7.246v-7.246h-3.478v7.246H33.53v3.382h7.247v7.343h3.478v-7.343h7.246v-3.382z" fill="#fff"/></g><defs><clipPath id="clip0"><path fill="#fff" transform="translate(3)" d="M0 0h53.14v60H0z"/></clipPath></defs></svg>